<svg width="60" height="60" viewBox="0 0 60 60" fill="none" xmlns="http://www.w3.org/2000/svg">
<g filter="url(#filter0_i)">
<path d="M34.3412 51.3149C28.6482 51.3138 23.1192 49.4081 18.6347 45.9012L4.5352 60L0 55.465L14.0995 41.3663C10.5907 36.8815 8.68368 31.3516 8.68231 25.6575C8.68231 11.5106 20.1935 0 34.3412 0C48.4888 0 60 11.5106 60 25.6575C60 39.8044 48.4888 51.3149 34.3412 51.3149ZM34.3412 6.41437C23.728 6.41437 15.097 15.0449 15.097 25.6575C15.097 36.27 23.728 44.9006 34.3412 44.9006C44.9543 44.9006 53.5853 36.27 53.5853 25.6575C53.5853 15.0449 44.9543 6.41437 34.3412 6.41437Z" fill="#2A3C44" fill-opacity="0.4"/>
</g>
<defs>
<filter id="filter0_i" x="0" y="0" width="60" height="62" filterUnits="userSpaceOnUse" color-interpolation-filters="sRGB">
<feFlood flood-opacity="0" result="BackgroundImageFix"/>
<feBlend mode="normal" in="SourceGraphic" in2="BackgroundImageFix" result="shape"/>
<feColorMatrix in="SourceAlpha" type="matrix" values="0 0 0 0 0 0 0 0 0 0 0 0 0 0 0 0 0 0 127 0" result="hardAlpha"/>
<feOffset dy="2"/>
<feGaussianBlur stdDeviation="2"/>
<feComposite in2="hardAlpha" operator="arithmetic" k2="-1" k3="1"/>
<feColorMatrix type="matrix" values="0 0 0 0 0 0 0 0 0 0 0 0 0 0 0 0 0 0 0.25 0"/>
<feBlend mode="normal" in2="shape" result="effect1_innerShadow"/>
</filter>
</defs>
</svg>
