<svg width="84" height="67" viewBox="0 0 84 67" fill="none" xmlns="http://www.w3.org/2000/svg">
<g filter="url(#filter0_d)">
<path fill-rule="evenodd" clip-rule="evenodd" d="M2 61.3333H19.0213C19.0213 61.3333 18.1702 59.774 17.8298 59.081C17.4894 58.3879 17.4894 56.1356 17.8298 54.9228C18.1702 53.71 22.5957 44.8738 22.5957 44.8738H49.1489C49.1489 44.8738 53.0267 53.5367 53.1969 54.7495C53.3672 55.9623 53.1969 58.0414 53.1969 58.0414C52.962 59.5235 52.7353 60.2293 52.2128 61.3333H82C79.5697 57.9981 78.2975 56.093 76.5532 52.4972L55.4468 0H28.383C28.383 0 30.9362 2.77213 30.9362 3.46516C30.9362 4.15819 7.95745 52.4972 7.95745 52.4972C5.81624 56.208 4.49114 58.1132 2 61.3333ZM27.8723 34.1318H44.5532L36.5532 14.9002L27.8723 34.1318Z" fill="#DF771C"/>
<path d="M66.5473 50.5292L66 50.5292C66 50.5292 66.5473 51.6513 66.5473 52.1083C66.5473 52.5653 66.5473 50.5292 66.5473 50.5292Z" fill="url(#paint0_linear)"/>
<rect x="66.5471" y="50.5293" width="4.74287" height="10.8041" fill="url(#paint1_linear)"/>
<ellipse cx="69.0019" cy="47.2715" rx="1.93416" ry="1.93814" fill="#26343C"/>
<path d="M57.5475 50.5291L57 50.5292C57 50.5292 57.5475 51.6512 57.5475 52.1083C57.5475 52.5653 57.5475 50.5291 57.5475 50.5291Z" fill="url(#paint2_linear)"/>
<rect x="57.5474" y="50.5292" width="4.74462" height="10.8041" fill="url(#paint3_linear)"/>
<ellipse cx="60" cy="47.2715" rx="1.93416" ry="1.93814" fill="#26343C"/>
</g>
<defs>
<filter id="filter0_d" x="0" y="0" width="84" height="66.3334" filterUnits="userSpaceOnUse" color-interpolation-filters="sRGB">
<feFlood flood-opacity="0" result="BackgroundImageFix"/>
<feColorMatrix in="SourceAlpha" type="matrix" values="0 0 0 0 0 0 0 0 0 0 0 0 0 0 0 0 0 0 127 0"/>
<feOffset dy="3"/>
<feGaussianBlur stdDeviation="1"/>
<feColorMatrix type="matrix" values="0 0 0 0 0 0 0 0 0 0 0 0 0 0 0 0 0 0 0.25 0"/>
<feBlend mode="normal" in2="BackgroundImageFix" result="effect1_dropShadow"/>
<feBlend mode="normal" in="SourceGraphic" in2="effect1_dropShadow" result="shape"/>
</filter>
<linearGradient id="paint0_linear" x1="66.2736" y1="50.5292" x2="66.2736" y2="52.1751" gradientUnits="userSpaceOnUse">
<stop stop-color="#26343C"/>
<stop offset="0.588542" stop-color="#26343C"/>
<stop offset="1" stop-color="#1D292E"/>
</linearGradient>
<linearGradient id="paint1_linear" x1="68.9186" y1="50.5293" x2="68.9186" y2="61.3334" gradientUnits="userSpaceOnUse">
<stop stop-color="#26343C"/>
<stop offset="0.588542" stop-color="#26343C"/>
<stop offset="1" stop-color="#1D292E"/>
</linearGradient>
<linearGradient id="paint2_linear" x1="57.2737" y1="50.5291" x2="57.2737" y2="52.1751" gradientUnits="userSpaceOnUse">
<stop stop-color="#26343C"/>
<stop offset="0.588542" stop-color="#26343C"/>
<stop offset="1" stop-color="#1D292E"/>
</linearGradient>
<linearGradient id="paint3_linear" x1="59.9197" y1="50.5292" x2="59.9197" y2="61.3333" gradientUnits="userSpaceOnUse">
<stop stop-color="#26343C"/>
<stop offset="0.588542" stop-color="#26343C"/>
<stop offset="1" stop-color="#1D292E"/>
</linearGradient>
</defs>
</svg>
