<svg width="235" height="177" viewBox="0 0 235 177" fill="none" xmlns="http://www.w3.org/2000/svg">
<path fill-rule="evenodd" clip-rule="evenodd" d="M0 177H50C50 177 47.5 172.5 46.5 170.5C45.5 168.5 45.5 162 46.5 158.5C47.5 155 60.5 129.5 60.5 129.5H138.5C138.5 129.5 149.891 154.5 150.391 158C150.891 161.5 150.391 167.5 150.391 167.5C149.701 171.777 149.035 173.814 147.5 177H235C227.861 167.375 224.124 161.877 219 151.5L157 0H77.5C77.5 0 85 8 85 10C85 12 17.5 151.5 17.5 151.5C11.2102 162.209 7.31771 167.707 0 177ZM76 98.5H125L101.5 43L76 98.5Z" fill="#DF771C"/>
</svg>
