<svg width="1042" height="610" viewBox="0 0 1042 610" fill="none" xmlns="http://www.w3.org/2000/svg">
<mask id="mask0" mask-type="alpha" maskUnits="userSpaceOnUse" x="0" y="0" width="1042" height="610">
<rect width="1042" height="610" fill="#C4C4C4"/>
</mask>
<g mask="url(#mask0)">
<path fill-rule="evenodd" clip-rule="evenodd" d="M871 401C854.431 401 841 414.431 841 431V502C841 518.569 854.431 532 871 532H989C1005.57 532 1019 518.569 1019 502V431C1019 414.431 1005.57 401 989 401H871ZM916 427C910.477 427 906 431.477 906 437V497C906 502.523 910.477 507 916 507H944C949.523 507 954 502.523 954 497V437C954 431.477 949.523 427 944 427H916Z" fill="#DF791F"/>
<path fill-rule="evenodd" clip-rule="evenodd" d="M682 437C682 417.118 698.118 401 718 401H811H825.5L831 433C827 429.5 817.5 427.5 817 427.5L811 427H758C752.477 427 748 431.477 748 437V493C748 499.627 753.373 505 760 505H810L816 504.672C816.5 504.672 826 502.609 830 499L824.5 532H811H810H720C699.013 532 682 514.987 682 494V437Z" fill="#DF771C"/>
<path fill-rule="evenodd" clip-rule="evenodd" d="M591.5 401.001L599 401V401.001V420.14C598.994 414.594 591.5 401.001 591.5 401.001ZM664 511.699V401.001H599V420.147V532.001V511.699C599 517.574 591 532 591 532L599 532.001H664L672 532C672 532 664 517.574 664 511.699Z" fill="#DF771C"/>
<path d="M631.5 374C644.479 374 655 363.479 655 350.5C655 337.521 644.479 327 631.5 327C618.521 327 608 337.521 608 350.5C608 363.479 618.521 374 631.5 374Z" fill="#DF771C"/>
<path fill-rule="evenodd" clip-rule="evenodd" d="M571.593 401.019C574.564 401.03 577.696 401.041 581 401.041V443.041C573.01 438.129 566.456 436.88 551.5 437.041C533.006 437.404 523.085 438.427 520 451.448V511.989C520 517.865 528 532.29 528 532.29L520 532.291V532.29H455V417.302C453.323 410.946 448 401.291 448 401.291L455 401.29H455.5H513L515 422.29H515.271C523.142 400.844 535.418 400.889 571.593 401.019ZM455 532.29V532.291L447 532.29C447 532.29 455 517.865 455 511.989V532.29Z" fill="#DF771C"/>
<path d="M581 401.041H581.5V400.541H581V401.041ZM571.593 401.019L571.591 401.519L571.593 401.019ZM581 443.041L580.738 443.467L581.5 443.935V443.041H581ZM551.5 437.041L551.495 436.541H551.49L551.5 437.041ZM520 451.448L519.513 451.333L519.5 451.39V451.448H520ZM520 511.989H520.5H520ZM528 532.29V532.79H528.849L528.437 532.048L528 532.29ZM520 532.291H519.5V532.791H520V532.291ZM520 532.29H520.5V531.79H520V532.29ZM455 417.302H455.5V417.237L455.483 417.174L455 417.302ZM448 401.291V400.791H447.153L447.562 401.532L448 401.291ZM455 401.29V401.79H455.5V401.29H455ZM455 401.29V400.79H454.5V401.29H455ZM513 401.29L513.498 401.243L513.455 400.79H513V401.29ZM515 422.29L514.502 422.338L514.545 422.79H515V422.29ZM515.271 422.29V422.79H515.62L515.74 422.463L515.271 422.29ZM455 532.291V532.791H455.5V532.291H455ZM447 532.29L446.563 532.048L446.151 532.79H447V532.29ZM581 400.541C577.697 400.541 574.566 400.53 571.595 400.519L571.591 401.519C574.562 401.53 577.695 401.541 581 401.541V400.541ZM581.5 443.041V401.041H580.5V443.041H581.5ZM551.505 437.541C566.423 437.38 572.866 438.627 580.738 443.467L581.262 442.615C573.155 437.63 566.489 436.379 551.495 436.541L551.505 437.541ZM520.487 451.563C521.244 448.365 522.413 445.938 524.003 444.08C525.59 442.223 527.621 440.907 530.146 439.966C535.229 438.073 542.241 437.722 551.51 437.541L551.49 436.541C542.264 436.722 535.069 437.065 529.797 439.029C527.145 440.017 524.961 441.421 523.243 443.43C521.526 445.437 520.298 448.02 519.513 451.333L520.487 451.563ZM520.5 511.989V451.448H519.5V511.989H520.5ZM528 532.29C528.437 532.048 528.437 532.048 528.437 532.048V532.047C528.437 532.047 528.436 532.046 528.436 532.045C528.435 532.044 528.434 532.041 528.432 532.038C528.428 532.031 528.422 532.021 528.415 532.007C528.4 531.98 528.378 531.94 528.349 531.887C528.291 531.781 528.205 531.624 528.096 531.422C527.879 531.018 527.567 530.434 527.194 529.714C526.446 528.274 525.45 526.295 524.454 524.134C523.458 521.971 522.465 519.634 521.723 517.477C520.976 515.306 520.5 513.37 520.5 511.989H519.5C519.5 513.546 520.024 515.616 520.777 517.803C521.535 520.003 522.542 522.374 523.546 524.552C524.55 526.732 525.554 528.726 526.306 530.175C526.683 530.9 526.996 531.488 527.216 531.896C527.326 532.1 527.412 532.259 527.472 532.367C527.501 532.421 527.524 532.462 527.539 532.49C527.547 532.504 527.553 532.514 527.557 532.522C527.559 532.525 527.56 532.528 527.561 532.53C527.562 532.531 527.562 532.531 527.562 532.532H527.563C527.563 532.533 527.563 532.533 528 532.29ZM520 532.791L528 532.79V531.79L520 531.791V532.791ZM519.5 532.29V532.291H520.5V532.29H519.5ZM455 532.79H520V531.79H455V532.79ZM454.5 417.302V532.29H455.5V417.302H454.5ZM448 401.291C447.562 401.532 447.562 401.532 447.562 401.532C447.562 401.533 447.562 401.533 447.562 401.533C447.562 401.533 447.563 401.533 447.563 401.534C447.564 401.535 447.564 401.537 447.566 401.539C447.568 401.543 447.572 401.55 447.577 401.559C447.587 401.577 447.602 401.605 447.621 401.64C447.66 401.712 447.718 401.818 447.792 401.955C447.94 402.23 448.153 402.63 448.415 403.131C448.938 404.131 449.653 405.532 450.42 407.129C451.959 410.334 453.691 414.3 454.517 417.429L455.483 417.174C454.632 413.947 452.864 409.908 451.322 406.697C450.549 405.086 449.828 403.675 449.301 402.667C449.037 402.163 448.822 401.759 448.672 401.481C448.597 401.342 448.539 401.235 448.499 401.162C448.479 401.125 448.464 401.097 448.454 401.079C448.449 401.069 448.445 401.062 448.442 401.057C448.441 401.055 448.44 401.053 448.439 401.052C448.439 401.051 448.438 401.051 448.438 401.05C448.438 401.05 448.438 401.05 448 401.291ZM455 400.79L448 400.791V401.791L455 401.79V400.79ZM454.5 401.29H455.5H454.5ZM455.5 400.79H455V401.79H455.5V400.79ZM513 400.79H455.5V401.79H513V400.79ZM515.498 422.243L513.498 401.243L512.502 401.338L514.502 422.338L515.498 422.243ZM515.271 421.79H515V422.79H515.271V421.79ZM571.595 400.519C562.555 400.486 554.99 400.459 548.613 400.772C542.238 401.086 537.017 401.741 532.67 403.086C528.313 404.434 524.831 406.477 521.94 409.559C519.055 412.634 516.782 416.72 514.801 422.118L515.74 422.463C517.694 417.138 519.908 413.186 522.669 410.243C525.424 407.306 528.748 405.346 532.966 404.041C537.193 402.733 542.316 402.083 548.663 401.771C555.007 401.459 562.543 401.486 571.591 401.519L571.595 400.519ZM455.5 532.291L454.5 532.29V532.291H455.5ZM447 532.79L455 532.791V531.791L447 531.79V532.79ZM454.5 511.989C454.5 513.37 454.024 515.306 453.277 517.477C452.535 519.634 451.542 521.971 450.546 524.134C449.55 526.295 448.554 528.274 447.806 529.714C447.433 530.434 447.121 531.018 446.904 531.422C446.795 531.624 446.709 531.781 446.651 531.887C446.622 531.94 446.6 531.98 446.585 532.007C446.578 532.021 446.572 532.031 446.568 532.038C446.566 532.041 446.565 532.044 446.564 532.045C446.564 532.046 446.563 532.047 446.563 532.047V532.048C446.563 532.048 446.563 532.048 447 532.29C447.437 532.533 447.437 532.533 447.437 532.532H447.438C447.438 532.531 447.438 532.531 447.439 532.53C447.44 532.528 447.441 532.525 447.443 532.522C447.447 532.514 447.453 532.504 447.461 532.49C447.476 532.462 447.499 532.421 447.528 532.367C447.588 532.259 447.674 532.1 447.784 531.896C448.004 531.488 448.317 530.9 448.694 530.175C449.446 528.726 450.45 526.732 451.454 524.552C452.458 522.374 453.465 520.003 454.223 517.803C454.976 515.616 455.5 513.546 455.5 511.989H454.5ZM455.5 532.29V511.989H454.5V532.29H455.5Z" fill="#DF771C"/>
<path fill-rule="evenodd" clip-rule="evenodd" d="M318 480H426.5V430C426.5 417 422 401 395 401H283C263.5 401 254 414 254 437V500.5C254 522 268 530.5 293 530.5H420.5L425 500.5C416.576 503.765 411.5 505.5 395 505.5H332C321 505.5 318 501.5 318 490.5V480ZM317 456.999H363V453V448.5V436.5C363 430.5 359 429 347 429C335 429 339 429 339 429C322 429 317 429.5 317 438.999V456.999Z" fill="#DF771C"/>
<path d="M426.5 480V480.5H427V480H426.5ZM318 480V479.5H317.5V480H318ZM283 401V401.5V401ZM254 437H254.5H254ZM254 500.5H254.5H254ZM420.5 530.5V531H420.931L420.995 530.574L420.5 530.5ZM425 500.5L425.495 500.574L425.622 499.723L424.819 500.034L425 500.5ZM363 456.999V457.499H363.5V456.999H363ZM317 456.999H316.5V457.499H317V456.999ZM347 429V428.5V429ZM426.5 479.5H318V480.5H426.5V479.5ZM426 430V480H427V430H426ZM395 401.5C408.399 401.5 416.107 405.466 420.485 410.937C424.879 416.431 426 423.543 426 430H427C427 423.457 425.871 416.069 421.265 410.313C416.643 404.534 408.601 400.5 395 400.5V401.5ZM283 401.5H395V400.5H283V401.5ZM254.5 437C254.5 425.557 256.865 416.686 261.581 410.684C266.28 404.703 273.371 401.5 283 401.5V400.5C273.13 400.5 265.72 403.797 260.794 410.066C255.885 416.314 253.5 425.443 253.5 437H254.5ZM254.5 500.5V437H253.5V500.5H254.5ZM293 530C280.54 530 270.917 527.878 264.419 523.158C257.953 518.461 254.5 511.131 254.5 500.5H253.5C253.5 511.369 257.047 519.039 263.831 523.967C270.583 528.872 280.461 531 293 531V530ZM420.5 530H293V531H420.5V530ZM424.506 500.426L420.006 530.426L420.995 530.574L425.495 500.574L424.506 500.426ZM395 506C403.265 506 408.694 505.566 413.123 504.715C417.555 503.864 420.966 502.6 425.181 500.966L424.819 500.034C420.61 501.665 417.271 502.901 412.934 503.733C408.594 504.567 403.235 505 395 505V506ZM332 506H395V505H332V506ZM317.5 490.5C317.5 496.011 318.243 499.933 320.503 502.458C322.776 505 326.466 506 332 506V505C326.534 505 323.224 504 321.248 501.792C319.257 499.567 318.5 495.989 318.5 490.5H317.5ZM317.5 480V490.5H318.5V480H317.5ZM363 456.499H317V457.499H363V456.499ZM362.5 453V456.999H363.5V453H362.5ZM362.5 448.5V453H363.5V448.5H362.5ZM362.5 436.5V448.5H363.5V436.5H362.5ZM347 429.5C353.011 429.5 356.906 429.881 359.295 430.956C360.468 431.484 361.253 432.17 361.753 433.045C362.258 433.928 362.5 435.052 362.5 436.5H363.5C363.5 434.948 363.242 433.634 362.622 432.549C361.997 431.455 361.032 430.641 359.705 430.044C357.094 428.869 352.989 428.5 347 428.5V429.5ZM339 429C339 428.5 339 428.5 339 428.5C339 428.5 339 428.5 338.999 428.5C338.999 428.5 338.998 428.5 338.997 428.5C338.995 428.5 338.992 428.5 338.989 428.5C338.982 428.5 338.971 428.5 338.958 428.5C338.932 428.5 338.895 428.5 338.852 428.5C338.766 428.5 338.656 428.5 338.563 428.5C338.469 428.5 338.391 428.5 338.367 428.5C338.364 428.5 338.362 428.5 338.361 428.5C338.36 428.5 338.36 428.5 338.36 428.5C338.361 428.5 338.86 429 338.361 429.5H338.36C338.36 429.5 338.36 429.5 338.361 429.5C338.362 429.5 338.368 429.5 338.378 429.5C338.398 429.5 338.438 429.5 338.5 429.5C339 429.5 341 429.5 347 429.5V428.5C341 428.5 339 428.5 338.5 428.5C338.437 428.5 338.398 428.5 338.378 428.5C338.368 428.5 338.362 428.5 338.36 428.5H338.359C337.86 429 338.359 429.5 338.36 429.5C338.36 429.5 338.36 429.5 338.361 429.5C338.362 429.5 338.364 429.5 338.367 429.5C338.391 429.5 338.469 429.5 338.562 429.5C338.656 429.5 338.766 429.5 338.852 429.5C338.895 429.5 338.932 429.5 338.958 429.5C338.971 429.5 338.982 429.5 338.989 429.5C338.992 429.5 338.995 429.5 338.997 429.5C338.998 429.5 338.999 429.5 338.999 429.5C339 429.5 339 429.5 339 429.5C339 429.5 339 429.5 339 429ZM317.5 438.999C317.5 436.658 317.81 434.941 318.488 433.664C319.156 432.406 320.208 431.525 321.806 430.903C323.422 430.275 325.58 429.92 328.425 429.725C331.265 429.531 334.748 429.5 339 429.5V428.5C334.752 428.5 331.235 428.531 328.357 428.728C325.483 428.924 323.203 429.287 321.444 429.971C319.667 430.662 318.406 431.687 317.605 433.195C316.815 434.683 316.5 436.591 316.5 438.999H317.5ZM317.5 456.999V438.999H316.5V456.999H317.5Z" fill="#DF771C"/>
<path fill-rule="evenodd" clip-rule="evenodd" d="M19 531H69C69 531 66.5 526.5 65.5 524.5C64.5 522.5 64.5 516 65.5 512.5C66.5 509 79.5 483.5 79.5 483.5H157.5C157.5 483.5 168.891 508.5 169.391 512C169.891 515.5 169.391 521.5 169.391 521.5C168.701 525.777 168.035 527.814 166.5 531H254C246.861 521.375 243.124 515.877 238 505.5L176 354H96.5C96.5 354 104 362 104 364C104 366 36.5 505.5 36.5 505.5C30.2102 516.209 26.3177 521.707 19 531ZM95 452.5H144L120.5 397L95 452.5Z" fill="#DF771C"/>
<path d="M69 531V531.5H69.8498L69.4371 530.757L69 531ZM19 531L18.6072 530.691L17.9698 531.5H19V531ZM79.5 483.5V483H79.1937L79.0545 483.273L79.5 483.5ZM157.5 483.5L157.955 483.293L157.822 483H157.5V483.5ZM169.391 521.5L169.885 521.58L169.888 521.561L169.89 521.542L169.391 521.5ZM166.5 531L166.05 530.783L165.704 531.5H166.5V531ZM254 531V531.5H254.993L254.402 530.702L254 531ZM238 505.5L237.537 505.689L237.544 505.706L237.552 505.721L238 505.5ZM176 354L176.463 353.811L176.336 353.5H176V354ZM96.5 354V353.5H95.3459L96.1352 354.342L96.5 354ZM36.5 505.5L36.9311 505.753L36.9413 505.736L36.9501 505.718L36.5 505.5ZM144 452.5V453H144.755L144.46 452.305L144 452.5ZM95 452.5L94.5457 452.291L94.22 453H95V452.5ZM120.5 397L120.96 396.805L120.519 395.762L120.046 396.791L120.5 397ZM120.5 394.5L120.96 394.305L120.518 393.26L120.045 394.292L120.5 394.5ZM93.5 453.5L93.0453 453.292L92.7213 454H93.5V453.5ZM145.5 453.5V454H146.255L145.96 453.305L145.5 453.5ZM69 530.5H19V531.5H69V530.5ZM65.0528 524.724C65.5574 525.733 66.4365 527.365 67.1861 528.739C67.5615 529.428 67.9057 530.054 68.156 530.507C68.2811 530.734 68.3828 530.918 68.4532 531.045C68.4884 531.109 68.5158 531.158 68.5345 531.192C68.5438 531.208 68.5509 531.221 68.5556 531.23C68.558 531.234 68.5599 531.237 68.5611 531.239C68.5617 531.241 68.5621 531.241 68.5624 531.242C68.5626 531.242 68.5627 531.242 68.5628 531.243H68.5629C68.5629 531.243 68.5629 531.243 69 531C69.4371 530.757 69.4371 530.757 69.4371 530.757C69.437 530.757 69.437 530.757 69.437 530.757C69.4369 530.757 69.4368 530.757 69.4366 530.756C69.4363 530.756 69.4359 530.755 69.4353 530.754C69.4341 530.752 69.4323 530.749 69.4299 530.744C69.4252 530.736 69.4182 530.723 69.4089 530.706C69.3904 530.673 69.3631 530.624 69.328 530.56C69.2578 530.434 69.1564 530.25 69.0315 530.024C68.7818 529.571 68.4385 528.947 68.0639 528.261C67.3135 526.885 66.4426 525.267 65.9472 524.276L65.0528 524.724ZM65.0192 512.363C64.5016 514.174 64.25 516.725 64.25 519.062C64.25 520.235 64.3133 521.367 64.4418 522.339C64.5686 523.298 64.7644 524.147 65.0528 524.724L65.9472 524.276C65.7356 523.853 65.5564 523.139 65.4332 522.208C65.3117 521.289 65.25 520.202 65.25 519.062C65.25 516.775 65.4984 514.326 65.9808 512.637L65.0192 512.363ZM79.5 483.5C79.0545 483.273 79.0545 483.273 79.0544 483.273C79.0543 483.273 79.0541 483.274 79.0539 483.274C79.0535 483.275 79.0529 483.276 79.0522 483.278C79.0506 483.281 79.0482 483.285 79.0451 483.291C79.0388 483.304 79.0295 483.322 79.0171 483.346C78.9925 483.395 78.9559 483.467 78.9081 483.56C78.8126 483.748 78.6724 484.024 78.4936 484.376C78.136 485.081 77.6242 486.091 77.0068 487.314C75.7721 489.76 74.1152 493.058 72.427 496.466C70.739 499.873 69.0186 503.392 67.6571 506.279C66.3061 509.144 65.2832 511.439 65.0192 512.363L65.9808 512.637C66.2168 511.811 67.1939 509.606 68.5616 506.705C69.9189 503.827 71.636 500.315 73.323 496.909C75.0098 493.505 76.6654 490.209 77.8995 487.764C78.5165 486.542 79.028 485.533 79.3853 484.829C79.5639 484.477 79.704 484.201 79.7994 484.014C79.8471 483.92 79.8836 483.848 79.9082 483.8C79.9205 483.776 79.9298 483.758 79.9361 483.746C79.9392 483.739 79.9415 483.735 79.9431 483.732C79.9439 483.73 79.9445 483.729 79.9449 483.728C79.9451 483.728 79.9452 483.728 79.9453 483.727C79.9454 483.727 79.9455 483.727 79.5 483.5ZM157.5 483H79.5V484H157.5V483ZM169.886 511.929C169.816 511.436 169.566 510.617 169.208 509.604C168.846 508.576 168.357 507.305 167.786 505.884C166.645 503.042 165.172 499.583 163.717 496.238C162.26 492.892 160.82 489.656 159.744 487.256C159.206 486.057 158.759 485.066 158.446 484.375C158.29 484.029 158.167 483.759 158.083 483.575C158.041 483.483 158.009 483.412 157.988 483.365C157.977 483.341 157.969 483.323 157.963 483.311C157.961 483.305 157.958 483.3 157.957 483.297C157.956 483.296 157.956 483.295 157.956 483.294C157.955 483.293 157.955 483.293 157.955 483.293C157.955 483.293 157.955 483.293 157.5 483.5C157.045 483.707 157.045 483.707 157.045 483.708C157.045 483.708 157.045 483.708 157.046 483.708C157.046 483.709 157.046 483.71 157.047 483.712C157.048 483.715 157.05 483.719 157.053 483.725C157.059 483.737 157.067 483.755 157.078 483.779C157.099 483.826 157.131 483.897 157.173 483.988C157.256 484.172 157.379 484.442 157.535 484.787C157.847 485.477 158.294 486.467 158.831 487.666C159.907 490.063 161.346 493.296 162.8 496.637C164.254 499.979 165.723 503.427 166.858 506.257C167.426 507.672 167.909 508.928 168.265 509.937C168.627 510.961 168.842 511.689 168.896 512.071L169.886 511.929ZM169.391 521.5C169.89 521.542 169.89 521.541 169.89 521.541C169.89 521.541 169.89 521.541 169.89 521.54C169.89 521.539 169.89 521.538 169.89 521.537C169.89 521.534 169.891 521.529 169.891 521.523C169.892 521.511 169.893 521.494 169.895 521.471C169.899 521.426 169.904 521.359 169.91 521.272C169.923 521.1 169.941 520.85 169.961 520.539C170 519.918 170.047 519.054 170.079 518.079C170.141 516.138 170.143 513.726 169.886 511.929L168.896 512.071C169.14 513.774 169.141 516.112 169.079 518.046C169.048 519.009 169.001 519.863 168.963 520.476C168.943 520.783 168.926 521.029 168.913 521.198C168.907 521.283 168.902 521.348 168.898 521.392C168.897 521.414 168.895 521.431 168.894 521.442C168.894 521.448 168.894 521.452 168.893 521.455C168.893 521.456 168.893 521.457 168.893 521.458C168.893 521.458 168.893 521.458 169.391 521.5ZM166.95 531.217C168.508 527.984 169.188 525.901 169.885 521.58L168.898 521.42C168.215 525.654 167.562 527.644 166.05 530.783L166.95 531.217ZM254 530.5H166.5V531.5H254V530.5ZM237.552 505.721C242.694 516.136 246.45 521.66 253.598 531.298L254.402 530.702C247.272 521.09 243.554 515.619 238.448 505.279L237.552 505.721ZM175.537 354.189L237.537 505.689L238.463 505.311L176.463 353.811L175.537 354.189ZM96.5 354.5H176V353.5H96.5V354.5ZM104.5 364C104.5 363.625 104.335 363.192 104.125 362.772C103.906 362.334 103.599 361.837 103.241 361.312C102.525 360.261 101.575 359.06 100.634 357.93C99.6912 356.798 98.7492 355.731 98.0435 354.947C97.6905 354.555 97.3962 354.233 97.19 354.009C97.0869 353.897 97.0058 353.809 96.9504 353.75C96.9227 353.72 96.9014 353.697 96.887 353.682C96.8798 353.674 96.8743 353.668 96.8705 353.664C96.8687 353.662 96.8673 353.661 96.8663 353.66C96.8658 353.659 96.8655 353.659 96.8652 353.658C96.8651 353.658 96.865 353.658 96.8649 353.658C96.8648 353.658 96.8648 353.658 96.5 354C96.1352 354.342 96.1352 354.342 96.1353 354.342C96.1353 354.342 96.1354 354.342 96.1355 354.342C96.1357 354.342 96.136 354.343 96.1364 354.343C96.1373 354.344 96.1386 354.346 96.1403 354.347C96.1438 354.351 96.1491 354.357 96.1561 354.364C96.17 354.379 96.1908 354.402 96.218 354.431C96.2725 354.489 96.3525 354.576 96.4545 354.686C96.6585 354.908 96.9501 355.227 97.3002 355.616C98.0008 356.394 98.9338 357.452 99.8659 358.57C100.8 359.69 101.725 360.864 102.415 361.875C102.76 362.382 103.04 362.838 103.231 363.22C103.431 363.62 103.5 363.875 103.5 364H104.5ZM36.5 505.5C36.9501 505.718 36.9503 505.717 36.9509 505.716C36.9514 505.715 36.9521 505.714 36.9532 505.711C36.9552 505.707 36.9583 505.701 36.9624 505.692C36.9706 505.675 36.9828 505.65 36.999 505.617C37.0315 505.55 37.0799 505.45 37.1437 505.318C37.2715 505.053 37.461 504.662 37.7082 504.151C38.2026 503.128 38.9277 501.629 39.8506 499.72C41.6963 495.901 44.3331 490.444 47.4972 483.889C53.8254 470.78 62.263 453.279 70.7007 435.717C79.1383 418.154 87.5763 400.528 93.905 387.167C97.0692 380.487 99.7069 374.872 101.554 370.864C102.477 368.86 103.204 367.255 103.7 366.119C103.948 365.551 104.14 365.097 104.271 364.766C104.337 364.601 104.389 364.462 104.425 364.352C104.444 364.297 104.46 364.243 104.472 364.195C104.482 364.157 104.5 364.082 104.5 364H103.5C103.5 363.949 103.51 363.922 103.503 363.949C103.499 363.965 103.491 363.993 103.477 364.035C103.449 364.12 103.404 364.24 103.342 364.398C103.217 364.712 103.03 365.154 102.784 365.719C102.291 366.845 101.568 368.443 100.646 370.445C98.8009 374.448 96.1651 380.06 93.0013 386.739C86.6737 400.097 78.2367 417.721 69.7993 435.283C61.362 452.846 52.9246 470.345 46.5966 483.455C43.4326 490.009 40.7959 495.466 38.9502 499.284C38.0274 501.193 37.3023 502.693 36.8079 503.715C36.5608 504.226 36.3712 504.618 36.2435 504.882C36.1797 505.014 36.1313 505.114 36.0988 505.181C36.0826 505.215 36.0704 505.24 36.0622 505.257C36.0581 505.265 36.0551 505.272 36.053 505.276C36.052 505.278 36.0512 505.28 36.0507 505.281C36.0502 505.282 36.0499 505.282 36.5 505.5ZM19.3928 531.309C26.7224 522.002 30.6282 516.485 36.9311 505.753L36.0689 505.247C29.7922 515.934 25.913 521.413 18.6072 530.691L19.3928 531.309ZM144 452H95V453H144V452ZM120.04 397.195L143.54 452.695L144.46 452.305L120.96 396.805L120.04 397.195ZM95.4543 452.709L120.954 397.209L120.046 396.791L94.5457 452.291L95.4543 452.709ZM120.045 394.292L93.0453 453.292L93.9547 453.708L120.955 394.708L120.045 394.292ZM145.96 453.305L120.96 394.305L120.04 394.695L145.04 453.695L145.96 453.305ZM93.5 454H145.5V453H93.5V454Z" fill="#DF771C"/>
<path d="M485.512 556.592H491.848V590H485.512V556.592ZM543.031 556.592V590H536.695L520.855 567.92V590H514.519V556.592H520.855L536.695 578.624V556.592H543.031ZM582.574 590.576C578.894 590.576 575.726 589.872 573.07 588.464C570.446 587.056 568.43 585.056 567.022 582.464C565.646 579.84 564.958 576.784 564.958 573.296C564.958 569.808 565.662 566.768 567.07 564.176C568.478 561.552 570.526 559.536 573.214 558.128C575.902 556.72 579.118 556.016 582.862 556.016C584.43 556.016 585.966 556.176 587.47 556.496C589.006 556.784 590.382 557.232 591.598 557.84V563.696H591.406C590.19 562.992 588.862 562.464 587.422 562.112C586.014 561.76 584.67 561.584 583.39 561.584C579.742 561.584 576.862 562.592 574.75 564.608C572.67 566.624 571.63 569.52 571.63 573.296C571.63 577.04 572.654 579.92 574.702 581.936C576.75 583.952 579.55 584.96 583.102 584.96C584.478 584.96 585.87 584.752 587.278 584.336C588.718 583.888 590.094 583.264 591.406 582.464H591.598V588.368C589.038 589.84 586.03 590.576 582.574 590.576ZM629.072 590.576C625.648 590.576 622.704 589.872 620.24 588.464C617.776 587.056 615.904 585.056 614.624 582.464C613.344 579.872 612.704 576.816 612.704 573.296C612.704 569.776 613.344 566.72 614.624 564.128C615.904 561.536 617.776 559.536 620.24 558.128C622.704 556.72 625.648 556.016 629.072 556.016C632.496 556.016 635.44 556.72 637.905 558.128C640.369 559.536 642.241 561.536 643.52 564.128C644.8 566.72 645.441 569.776 645.441 573.296C645.441 576.816 644.8 579.872 643.52 582.464C642.241 585.056 640.369 587.056 637.905 588.464C635.44 589.872 632.496 590.576 629.072 590.576ZM629.072 584.72C632.08 584.72 634.448 583.744 636.176 581.792C637.905 579.808 638.769 576.976 638.769 573.296C638.769 569.616 637.905 566.8 636.176 564.848C634.448 562.864 632.08 561.872 629.072 561.872C626.064 561.872 623.696 562.864 621.968 564.848C620.24 566.8 619.376 569.616 619.376 573.296C619.376 576.976 620.24 579.808 621.968 581.792C623.696 583.744 626.064 584.72 629.072 584.72ZM686.473 590L679.657 577.28H673.705V590H667.369V556.592H679.417C683.737 556.592 686.969 557.456 689.113 559.184C691.257 560.912 692.329 563.424 692.329 566.72C692.329 569.056 691.801 571.04 690.745 572.672C689.689 574.304 688.121 575.52 686.041 576.32L693.433 590H686.473ZM673.705 571.712H679.465C681.577 571.712 683.129 571.344 684.121 570.608C685.145 569.872 685.657 568.624 685.657 566.864C685.657 565.168 685.161 563.968 684.169 563.264C683.177 562.56 681.593 562.208 679.417 562.208H673.705V571.712ZM714.178 556.592H725.218C729.826 556.592 733.266 557.536 735.538 559.424C737.81 561.28 738.946 563.984 738.946 567.536C738.946 571.12 737.826 573.904 735.586 575.888C733.346 577.872 730.082 578.864 725.794 578.864H720.514V590H714.178V556.592ZM725.266 573.344C727.666 573.344 729.426 572.912 730.546 572.048C731.698 571.184 732.274 569.728 732.274 567.68C732.274 565.696 731.714 564.288 730.594 563.456C729.474 562.624 727.682 562.208 725.218 562.208H720.514V573.344H725.266ZM774.282 590.576C770.858 590.576 767.914 589.872 765.45 588.464C762.986 587.056 761.114 585.056 759.834 582.464C758.554 579.872 757.914 576.816 757.914 573.296C757.914 569.776 758.554 566.72 759.834 564.128C761.114 561.536 762.986 559.536 765.45 558.128C767.914 556.72 770.858 556.016 774.282 556.016C777.706 556.016 780.65 556.72 783.114 558.128C785.578 559.536 787.45 561.536 788.73 564.128C790.01 566.72 790.65 569.776 790.65 573.296C790.65 576.816 790.01 579.872 788.73 582.464C787.45 585.056 785.578 587.056 783.114 588.464C780.65 589.872 777.706 590.576 774.282 590.576ZM774.282 584.72C777.29 584.72 779.658 583.744 781.386 581.792C783.114 579.808 783.978 576.976 783.978 573.296C783.978 569.616 783.114 566.8 781.386 564.848C779.658 562.864 777.29 561.872 774.282 561.872C771.274 561.872 768.906 562.864 767.178 564.848C765.45 566.8 764.586 569.616 764.586 573.296C764.586 576.976 765.45 579.808 767.178 581.792C768.906 583.744 771.274 584.72 774.282 584.72ZM831.682 590L824.866 577.28H818.914V590H812.578V556.592H824.626C828.946 556.592 832.178 557.456 834.322 559.184C836.466 560.912 837.538 563.424 837.538 566.72C837.538 569.056 837.01 571.04 835.954 572.672C834.898 574.304 833.33 575.52 831.25 576.32L838.642 590H831.682ZM818.914 571.712H824.674C826.786 571.712 828.338 571.344 829.33 570.608C830.354 569.872 830.866 568.624 830.866 566.864C830.866 565.168 830.37 563.968 829.378 563.264C828.386 562.56 826.802 562.208 824.626 562.208H818.914V571.712ZM879.212 582.416H864.956L862.172 590H855.836L868.508 556.592H875.9L888.572 590H881.996L879.212 582.416ZM877.244 577.04L872.108 562.832L866.924 577.04H877.244ZM913.445 562.4H903.941V556.592H929.285V562.4H919.781V590H913.445V562.4ZM956.436 562.16V570.512H970.836V575.744H956.436V584.432H971.892V590H950.1V556.592H971.892V562.16H956.436ZM1006.34 556.592C1009.76 556.592 1012.71 557.28 1015.17 558.656C1017.64 560 1019.51 561.936 1020.79 564.464C1022.07 566.96 1022.71 569.904 1022.71 573.296C1022.71 576.688 1022.07 579.648 1020.79 582.176C1019.51 584.672 1017.64 586.608 1015.17 587.984C1012.71 589.328 1009.76 590 1006.34 590H994.003V556.592H1006.34ZM1006.34 584.384C1009.38 584.384 1011.75 583.44 1013.44 581.552C1015.17 579.664 1016.03 576.912 1016.03 573.296C1016.03 569.68 1015.17 566.928 1013.44 565.04C1011.75 563.152 1009.38 562.208 1006.34 562.208H1000.34V584.384H1006.34Z" fill="#818285"/>
<path d="M23.512 557.592H29.848V591H23.512V557.592ZM81.271 557.592V591H74.935L59.095 568.92V591H52.759V557.592H59.095L74.935 579.624V557.592H81.271ZM116.926 557.592C120.35 557.592 123.294 558.28 125.758 559.656C128.222 561 130.094 562.936 131.374 565.464C132.654 567.96 133.294 570.904 133.294 574.296C133.294 577.688 132.654 580.648 131.374 583.176C130.094 585.672 128.222 587.608 125.758 588.984C123.294 590.328 120.35 591 116.926 591H104.59V557.592H116.926ZM116.926 585.384C119.966 585.384 122.334 584.44 124.03 582.552C125.758 580.664 126.622 577.912 126.622 574.296C126.622 570.68 125.758 567.928 124.03 566.04C122.334 564.152 119.966 563.208 116.926 563.208H110.926V585.384H116.926ZM169.259 591.576C164.811 591.576 161.323 590.296 158.795 587.736C156.267 585.176 155.003 581.656 155.003 577.176V557.592H161.339V577.032C161.339 580.104 162.027 582.376 163.403 583.848C164.779 585.288 166.731 586.008 169.259 586.008C171.819 586.008 173.771 585.272 175.115 583.8C176.491 582.296 177.179 580.04 177.179 577.032V557.592H183.515V577.176C183.515 581.656 182.251 585.176 179.723 587.736C177.195 590.296 173.707 591.576 169.259 591.576ZM216.744 591.576C214.952 591.576 213.048 591.336 211.032 590.856C209.016 590.376 207.112 589.72 205.32 588.888V582.744C209.48 584.984 213.192 586.104 216.456 586.104C218.088 586.104 219.4 585.752 220.392 585.048C221.416 584.344 221.928 583.352 221.928 582.072C221.928 581.176 221.64 580.424 221.064 579.816C220.52 579.176 219.832 578.664 219 578.28C218.168 577.864 216.984 577.368 215.448 576.792C213.368 576.024 211.672 575.288 210.36 574.584C209.048 573.88 207.928 572.888 207 571.608C206.072 570.296 205.608 568.616 205.608 566.568C205.608 563.56 206.648 561.224 208.728 559.56C210.808 557.864 213.656 557.016 217.272 557.016C218.968 557.016 220.632 557.208 222.264 557.592C223.896 557.944 225.4 558.472 226.776 559.176V565.176C223.544 563.384 220.424 562.488 217.416 562.488C215.752 562.488 214.44 562.792 213.48 563.4C212.552 563.976 212.088 564.808 212.088 565.896C212.088 566.984 212.568 567.848 213.528 568.488C214.52 569.096 216.04 569.768 218.088 570.504C220.232 571.304 221.992 572.072 223.368 572.808C224.744 573.544 225.928 574.616 226.92 576.024C227.944 577.4 228.488 579.192 228.552 581.4C228.552 584.568 227.48 587.064 225.336 588.888C223.192 590.68 220.328 591.576 216.744 591.576ZM257.767 563.4H248.263V557.592H273.607V563.4H264.103V591H257.767V563.4ZM313.766 591L306.95 578.28H300.998V591H294.662V557.592H306.71C311.03 557.592 314.262 558.456 316.406 560.184C318.55 561.912 319.622 564.424 319.622 567.72C319.622 570.056 319.094 572.04 318.038 573.672C316.982 575.304 315.414 576.52 313.334 577.32L320.726 591H313.766ZM300.998 572.712H306.758C308.87 572.712 310.422 572.344 311.414 571.608C312.438 570.872 312.95 569.624 312.95 567.864C312.95 566.168 312.454 564.968 311.462 564.264C310.47 563.56 308.886 563.208 306.71 563.208H300.998V572.712ZM341.279 557.592H347.615V591H341.279V557.592ZM376.862 563.16V571.512H391.262V576.744H376.862V585.432H392.318V591H370.526V557.592H392.318V563.16H376.862ZM425.038 591.576C423.246 591.576 421.342 591.336 419.326 590.856C417.31 590.376 415.406 589.72 413.614 588.888V582.744C417.774 584.984 421.486 586.104 424.75 586.104C426.382 586.104 427.694 585.752 428.686 585.048C429.71 584.344 430.222 583.352 430.222 582.072C430.222 581.176 429.934 580.424 429.358 579.816C428.814 579.176 428.126 578.664 427.294 578.28C426.462 577.864 425.278 577.368 423.742 576.792C421.662 576.024 419.966 575.288 418.654 574.584C417.342 573.88 416.222 572.888 415.294 571.608C414.366 570.296 413.902 568.616 413.902 566.568C413.902 563.56 414.942 561.224 417.022 559.56C419.102 557.864 421.95 557.016 425.566 557.016C427.262 557.016 428.926 557.208 430.558 557.592C432.19 557.944 433.694 558.472 435.07 559.176V565.176C431.838 563.384 428.718 562.488 425.71 562.488C424.046 562.488 422.734 562.792 421.774 563.4C420.846 563.976 420.382 564.808 420.382 565.896C420.382 566.984 420.862 567.848 421.822 568.488C422.814 569.096 424.334 569.768 426.382 570.504C428.526 571.304 430.286 572.072 431.662 572.808C433.038 573.544 434.222 574.616 435.214 576.024C436.238 577.4 436.782 579.192 436.846 581.4C436.846 584.568 435.774 587.064 433.63 588.888C431.486 590.68 428.622 591.576 425.038 591.576Z" fill="#818285"/>
<path d="M632 210C641.941 210 650 201.941 650 192C650 182.059 641.941 174 632 174C622.059 174 614 182.059 614 192C614 201.941 622.059 210 632 210Z" fill="#DF771C"/>
<path d="M675 248C684.941 248 693 239.941 693 230C693 220.059 684.941 212 675 212C665.059 212 657 220.059 657 230C657 239.941 665.059 248 675 248Z" fill="#D1D2D4"/>
<path d="M589 248C579.059 248 571 239.941 571 230C571 220.059 579.059 212 589 212C598.941 212 607 220.059 607 230C607 239.941 598.941 248 589 248Z" fill="#D1D2D4"/>
<path d="M716 287C725.941 287 734 278.941 734 269C734 259.059 725.941 251 716 251C706.059 251 698 259.059 698 269C698 278.941 706.059 287 716 287Z" fill="#D1D2D4"/>
<path d="M548 287C538.059 287 530 278.941 530 269C530 259.059 538.059 251 548 251C557.941 251 566 259.059 566 269C566 278.941 557.941 287 548 287Z" fill="#D1D2D4"/>
<path d="M758 326C767.941 326 776 317.941 776 308C776 298.059 767.941 290 758 290C748.059 290 740 298.059 740 308C740 317.941 748.059 326 758 326Z" fill="#A7A9AC"/>
<path d="M506 326C496.059 326 488 317.941 488 308C488 298.059 496.059 290 506 290C515.941 290 524 298.059 524 308C524 317.941 515.941 326 506 326Z" fill="#A7A9AC"/>
<path d="M810 369C819.941 369 828 360.941 828 351C828 341.059 819.941 333 810 333C800.059 333 792 341.059 792 351C792 360.941 800.059 369 810 369Z" fill="#A7A9AC"/>
<path d="M454 369C444.059 369 436 360.941 436 351C436 341.059 444.059 333 454 333C463.941 333 472 341.059 472 351C472 360.941 463.941 369 454 369Z" fill="#A7A9AC"/>
<path d="M632 129C639.732 129 646 122.732 646 115C646 107.268 639.732 101 632 101C624.268 101 618 107.268 618 115C618 122.732 624.268 129 632 129Z" fill="#DF771C"/>
<path d="M673 167C680.732 167 687 160.732 687 153C687 145.268 680.732 139 673 139C665.268 139 659 145.268 659 153C659 160.732 665.268 167 673 167Z" fill="#D1D2D4"/>
<path d="M591 167C583.268 167 577 160.732 577 153C577 145.268 583.268 139 591 139C598.732 139 605 145.268 605 153C605 160.732 598.732 167 591 167Z" fill="#D1D2D4"/>
<path d="M717 206C724.732 206 731 199.732 731 192C731 184.268 724.732 178 717 178C709.268 178 703 184.268 703 192C703 199.732 709.268 206 717 206Z" fill="#A7A9AC"/>
<path d="M547 206C539.268 206 533 199.732 533 192C533 184.268 539.268 178 547 178C554.732 178 561 184.268 561 192C561 199.732 554.732 206 547 206Z" fill="#A7A9AC"/>
<path d="M758 244C765.732 244 772 237.732 772 230C772 222.268 765.732 216 758 216C750.268 216 744 222.268 744 230C744 237.732 750.268 244 758 244Z" fill="#A7A9AC"/>
<path d="M506 244C498.268 244 492 237.732 492 230C492 222.268 498.268 216 506 216C513.732 216 520 222.268 520 230C520 237.732 513.732 244 506 244Z" fill="#A7A9AC"/>
<path d="M802.5 201C809.404 201 815 195.404 815 188.5C815 181.596 809.404 176 802.5 176C795.596 176 790 181.596 790 188.5C790 195.404 795.596 201 802.5 201Z" fill="#A7A9AC"/>
<path d="M461.5 201C454.596 201 449 195.404 449 188.5C449 181.596 454.596 176 461.5 176C468.404 176 474 181.596 474 188.5C474 195.404 468.404 201 461.5 201Z" fill="#A7A9AC"/>
<path d="M801 282C808.732 282 815 275.732 815 268C815 260.268 808.732 254 801 254C793.268 254 787 260.268 787 268C787 275.732 793.268 282 801 282Z" fill="#A7A9AC"/>
<path d="M463 282C455.268 282 449 275.732 449 268C449 260.268 455.268 254 463 254C470.732 254 477 260.268 477 268C477 275.732 470.732 282 463 282Z" fill="#A7A9AC"/>
<path d="M843 320C850.732 320 857 313.732 857 306C857 298.268 850.732 292 843 292C835.268 292 829 298.268 829 306C829 313.732 835.268 320 843 320Z" fill="#A7A9AC"/>
<path d="M421 320C413.268 320 407 313.732 407 306C407 298.268 413.268 292 421 292C428.732 292 435 298.268 435 306C435 313.732 428.732 320 421 320Z" fill="#A7A9AC"/>
<path d="M892 365C899.732 365 906 358.732 906 351C906 343.268 899.732 337 892 337C884.268 337 878 343.268 878 351C878 358.732 884.268 365 892 365Z" fill="#818285"/>
<path d="M372 365C364.268 365 358 358.732 358 351C358 343.268 364.268 337 372 337C379.732 337 386 343.268 386 351C386 358.732 379.732 365 372 365Z" fill="#818285"/>
<path d="M632 39C636.971 39 641 34.9706 641 30C641 25.0294 636.971 21 632 21C627.029 21 623 25.0294 623 30C623 34.9706 627.029 39 632 39Z" fill="#DF771C"/>
<path d="M717 115C721.971 115 726 110.971 726 106C726 101.029 721.971 97 717 97C712.029 97 708 101.029 708 106C708 110.971 712.029 115 717 115Z" fill="#A7A9AC"/>
<path d="M547 115C542.029 115 538 110.971 538 106C538 101.029 542.029 97 547 97C551.971 97 556 101.029 556 106C556 110.971 551.971 115 547 115Z" fill="#A7A9AC"/>
<path d="M839 165C843.971 165 848 160.971 848 156C848 151.029 843.971 147 839 147C834.029 147 830 151.029 830 156C830 160.971 834.029 165 839 165Z" fill="#A7A9AC"/>
<path d="M425 165C420.029 165 416 160.971 416 156C416 151.029 420.029 147 425 147C429.971 147 434 151.029 434 156C434 160.971 429.971 165 425 165Z" fill="#A7A9AC"/>
<path d="M885 269C889.971 269 894 264.971 894 260C894 255.029 889.971 251 885 251C880.029 251 876 255.029 876 260C876 264.971 880.029 269 885 269Z" fill="#818285"/>
<path d="M379 269C374.029 269 370 264.971 370 260C370 255.029 374.029 251 379 251C383.971 251 388 255.029 388 260C388 264.971 383.971 269 379 269Z" fill="#818285"/>
<path d="M986 359C990.971 359 995 354.971 995 350C995 345.029 990.971 341 986 341C981.029 341 977 345.029 977 350C977 354.971 981.029 359 986 359Z" fill="#818285"/>
<path d="M278 359C273.029 359 269 354.971 269 350C269 345.029 273.029 341 278 341C282.971 341 287 345.029 287 350C287 354.971 282.971 359 278 359Z" fill="#818285"/>
<path d="M632.5 297C645.479 297 656 286.479 656 273.5C656 260.521 645.479 250 632.5 250C619.521 250 609 260.521 609 273.5C609 286.479 619.521 297 632.5 297Z" fill="#DF771C"/>
<path d="M673.5 337C686.479 337 697 326.479 697 313.5C697 300.521 686.479 290 673.5 290C660.521 290 650 300.521 650 313.5C650 326.479 660.521 337 673.5 337Z" fill="#D1D2D4"/>
<path d="M590.5 337C577.521 337 567 326.479 567 313.5C567 300.521 577.521 290 590.5 290C603.479 290 614 300.521 614 313.5C614 326.479 603.479 337 590.5 337Z" fill="#D1D2D4"/>
<path d="M716.5 374C729.479 374 740 363.479 740 350.5C740 337.521 729.479 327 716.5 327C703.521 327 693 337.521 693 350.5C693 363.479 703.521 374 716.5 374Z" fill="#A7A9AC"/>
<path d="M547.5 374C534.521 374 524 363.479 524 350.5C524 337.521 534.521 327 547.5 327C560.479 327 571 337.521 571 350.5C571 363.479 560.479 374 547.5 374Z" fill="#A7A9AC"/>
</g>
</svg>
