<svg width="1609" height="589" viewBox="0 0 1609 589" fill="none" xmlns="http://www.w3.org/2000/svg">
<path fill-rule="evenodd" clip-rule="evenodd" d="M854 380C837.431 380 824 393.431 824 410V481C824 497.569 837.431 511 854 511H972C988.569 511 1002 497.569 1002 481V410C1002 393.431 988.569 380 972 380H854ZM899 406C893.477 406 889 410.477 889 416V476C889 481.523 893.477 486 899 486H927C932.523 486 937 481.523 937 476V416C937 410.477 932.523 406 927 406H899Z" fill="#DF791F"/>
<path fill-rule="evenodd" clip-rule="evenodd" d="M665 416C665 396.118 681.118 380 701 380H794H808.5L814 412C810 408.5 800.5 406.5 800 406.5L794 406H741C735.477 406 731 410.477 731 416V472C731 478.627 736.373 484 743 484H793L799 483.672C799.5 483.672 809 481.609 813 478L807.5 511H794H793H703C682.013 511 665 493.987 665 473V416Z" fill="#DF771C"/>
<path fill-rule="evenodd" clip-rule="evenodd" d="M574.5 380.001L582 380L582 380.001L582 399.14C581.994 393.594 574.5 380.001 574.5 380.001ZM647 490.699V380.001H582V399.147L582 511.001L582 490.699C582 496.574 574 511 574 511L582 511.001H647L655 511C655 511 647 496.574 647 490.699Z" fill="#DF771C"/>
<circle cx="614.5" cy="329.5" r="23.5" fill="#DF771C"/>
<path fill-rule="evenodd" clip-rule="evenodd" d="M554.593 380.019C557.564 380.03 560.696 380.041 564 380.041V422.041C556.01 417.129 549.456 415.88 534.5 416.041C516.006 416.404 506.085 417.427 503 430.448V490.989C503 496.865 511 511.29 511 511.29L503 511.291V511.29H438V396.302C436.323 389.946 431 380.291 431 380.291L438 380.29V380.29H438.5H496L498 401.29H498.271C506.142 379.844 518.418 379.889 554.593 380.019ZM438 511.29L438 511.291L430 511.29C430 511.29 438 496.865 438 490.989L438 511.29Z" fill="#DF771C"/>
<path d="M564 380.041H564.5V379.541L564 379.541L564 380.041ZM554.593 380.019L554.591 380.519L554.593 380.019ZM564 422.041L563.738 422.467L564.5 422.935V422.041H564ZM534.5 416.041L534.495 415.541L534.49 415.541L534.5 416.041ZM503 430.448L502.513 430.333L502.5 430.39V430.448H503ZM503 490.989L503.5 490.989V490.989H503ZM511 511.29L511 511.79L511.849 511.79L511.437 511.048L511 511.29ZM503 511.291H502.5V511.791L503 511.791L503 511.291ZM503 511.29H503.5V510.79H503V511.29ZM438 396.302H438.5V396.237L438.483 396.174L438 396.302ZM431 380.291L431 379.791L430.153 379.791L430.562 380.532L431 380.291ZM438 380.29L438 380.79L438.5 380.79V380.29H438ZM438 380.29V379.79H437.5V380.29H438ZM496 380.29L496.498 380.243L496.455 379.79H496V380.29ZM498 401.29L497.502 401.338L497.545 401.79H498V401.29ZM498.271 401.29V401.79H498.62L498.74 401.463L498.271 401.29ZM438 511.291L438 511.791L438.5 511.791L438.5 511.291L438 511.291ZM430 511.29L429.563 511.048L429.151 511.79L430 511.79L430 511.29ZM564 379.541C560.697 379.541 557.566 379.53 554.595 379.519L554.591 380.519C557.562 380.53 560.695 380.541 564 380.541L564 379.541ZM564.5 422.041V380.041H563.5V422.041H564.5ZM534.505 416.541C549.423 416.38 555.866 417.627 563.738 422.467L564.262 421.615C556.155 416.63 549.489 415.379 534.495 415.541L534.505 416.541ZM503.487 430.563C504.244 427.365 505.413 424.938 507.003 423.08C508.59 421.223 510.621 419.907 513.146 418.966C518.229 417.073 525.241 416.722 534.51 416.541L534.49 415.541C525.264 415.722 518.069 416.065 512.797 418.029C510.145 419.017 507.961 420.421 506.243 422.43C504.526 424.437 503.298 427.02 502.513 430.333L503.487 430.563ZM503.5 490.989V430.448H502.5V490.989H503.5ZM511 511.29C511.437 511.048 511.437 511.048 511.437 511.048C511.437 511.048 511.437 511.047 511.437 511.047C511.437 511.047 511.436 511.046 511.436 511.045C511.435 511.044 511.434 511.041 511.432 511.038C511.428 511.031 511.422 511.021 511.415 511.007C511.4 510.98 511.378 510.94 511.349 510.887C511.291 510.781 511.205 510.624 511.096 510.422C510.879 510.018 510.567 509.434 510.194 508.714C509.446 507.274 508.45 505.295 507.454 503.134C506.458 500.971 505.465 498.634 504.723 496.477C503.976 494.306 503.5 492.37 503.5 490.989L502.5 490.989C502.5 492.546 503.024 494.616 503.777 496.803C504.535 499.003 505.542 501.374 506.546 503.552C507.55 505.732 508.554 507.726 509.306 509.175C509.683 509.9 509.996 510.488 510.216 510.896C510.326 511.1 510.412 511.259 510.472 511.367C510.501 511.421 510.524 511.462 510.539 511.49C510.547 511.504 510.553 511.514 510.557 511.522C510.559 511.525 510.56 511.528 510.561 511.53C510.562 511.531 510.562 511.531 510.562 511.532C510.562 511.532 510.563 511.532 510.563 511.532C510.563 511.533 510.563 511.533 511 511.29ZM503 511.791L511 511.79L511 510.79L503 510.791L503 511.791ZM502.5 511.29V511.291H503.5V511.29H502.5ZM438 511.79H503V510.79H438V511.79ZM437.5 396.302V511.29H438.5V396.302H437.5ZM431 380.291C430.562 380.532 430.562 380.532 430.562 380.532C430.562 380.533 430.562 380.533 430.562 380.533C430.562 380.533 430.563 380.533 430.563 380.534C430.564 380.535 430.564 380.537 430.566 380.539C430.568 380.543 430.572 380.55 430.577 380.559C430.587 380.577 430.602 380.605 430.621 380.64C430.66 380.712 430.718 380.818 430.792 380.955C430.94 381.23 431.153 381.63 431.415 382.131C431.938 383.131 432.653 384.532 433.42 386.129C434.959 389.334 436.691 393.3 437.517 396.429L438.483 396.174C437.632 392.947 435.864 388.908 434.322 385.697C433.549 384.086 432.828 382.675 432.301 381.667C432.037 381.163 431.822 380.759 431.672 380.481C431.597 380.342 431.539 380.235 431.499 380.162C431.479 380.125 431.464 380.097 431.454 380.079C431.449 380.069 431.445 380.062 431.442 380.057C431.441 380.055 431.44 380.053 431.439 380.052C431.439 380.051 431.438 380.051 431.438 380.05C431.438 380.05 431.438 380.05 431.438 380.05C431.438 380.05 431.438 380.05 431 380.291ZM438 379.79L431 379.791L431 380.791L438 380.79L438 379.79ZM437.5 380.29V380.29H438.5V380.29H437.5ZM438.5 379.79H438V380.79H438.5V379.79ZM496 379.79H438.5V380.79H496V379.79ZM498.498 401.243L496.498 380.243L495.502 380.338L497.502 401.338L498.498 401.243ZM498.271 400.79H498V401.79H498.271V400.79ZM554.595 379.519C545.555 379.486 537.99 379.459 531.613 379.772C525.238 380.086 520.017 380.741 515.67 382.086C511.313 383.434 507.831 385.477 504.94 388.559C502.055 391.634 499.782 395.72 497.801 401.118L498.74 401.463C500.694 396.138 502.908 392.186 505.669 389.243C508.424 386.306 511.748 384.346 515.966 383.041C520.193 381.733 525.316 381.083 531.663 380.771C538.007 380.459 545.543 380.486 554.591 380.519L554.595 379.519ZM438.5 511.291L438.5 511.291L437.5 511.29L437.5 511.291L438.5 511.291ZM430 511.79L438 511.791L438 510.791L430 510.79L430 511.79ZM437.5 490.989C437.5 492.37 437.024 494.306 436.277 496.477C435.535 498.634 434.542 500.971 433.546 503.134C432.55 505.295 431.554 507.274 430.806 508.714C430.433 509.434 430.121 510.018 429.904 510.422C429.795 510.624 429.709 510.781 429.651 510.887C429.622 510.94 429.6 510.98 429.585 511.007C429.578 511.021 429.572 511.031 429.568 511.038C429.566 511.041 429.565 511.044 429.564 511.045C429.564 511.046 429.563 511.047 429.563 511.047C429.563 511.047 429.563 511.048 429.563 511.048C429.563 511.048 429.563 511.048 430 511.29C430.437 511.533 430.437 511.533 430.437 511.532C430.437 511.532 430.438 511.532 430.438 511.532C430.438 511.531 430.438 511.531 430.439 511.53C430.44 511.528 430.441 511.525 430.443 511.522C430.447 511.514 430.453 511.504 430.461 511.49C430.476 511.462 430.499 511.421 430.528 511.367C430.588 511.259 430.674 511.1 430.784 510.896C431.004 510.488 431.317 509.9 431.694 509.175C432.446 507.726 433.45 505.732 434.454 503.552C435.458 501.374 436.465 499.003 437.223 496.803C437.976 494.616 438.5 492.546 438.5 490.989L437.5 490.989ZM438.5 511.29L438.5 490.989L437.5 490.989L437.5 511.29L438.5 511.29Z" fill="#DF771C"/>
<path fill-rule="evenodd" clip-rule="evenodd" d="M301 459H409.5V409C409.5 396 405 380 378 380H266C246.5 380 237 393 237 416V479.5C237 501 251 509.5 276 509.5H403.5L408 479.5C399.576 482.765 394.5 484.5 378 484.5H315C304 484.5 301 480.5 301 469.5V459ZM300 435.999H346V432V427.5V415.5C346 409.5 342 408 330 408C318 408 322 408 322 408C305 408 300 408.5 300 417.999V435.999Z" fill="#DF771C"/>
<path d="M409.5 459V459.5H410V459H409.5ZM301 459V458.5H300.5V459H301ZM266 380L266 380.5H266V380ZM237 416L237.5 416L237.5 416L237 416ZM237 479.5L237.5 479.5V479.5H237ZM403.5 509.5V510H403.931L403.995 509.574L403.5 509.5ZM408 479.5L408.495 479.574L408.622 478.723L407.819 479.034L408 479.5ZM346 435.999V436.499H346.5V435.999H346ZM300 435.999H299.5V436.499H300V435.999ZM330 408L330 407.5L330 407.5L330 408ZM409.5 458.5H301V459.5H409.5V458.5ZM409 409V459H410V409H409ZM378 380.5C391.399 380.5 399.107 384.466 403.485 389.937C407.879 395.431 409 402.543 409 409H410C410 402.457 408.871 395.069 404.265 389.313C399.643 383.534 391.601 379.5 378 379.5V380.5ZM266 380.5H378V379.5H266V380.5ZM237.5 416C237.5 404.557 239.865 395.686 244.581 389.684C249.28 383.703 256.371 380.5 266 380.5L266 379.5C256.13 379.5 248.72 382.797 243.794 389.066C238.885 395.314 236.5 404.443 236.5 416L237.5 416ZM237.5 479.5V416H236.5V479.5H237.5ZM276 509C263.54 509 253.917 506.878 247.419 502.158C240.953 497.461 237.5 490.131 237.5 479.5L236.5 479.5C236.5 490.369 240.047 498.039 246.831 502.967C253.583 507.872 263.461 510 276 510V509ZM403.5 509H276V510H403.5V509ZM407.506 479.426L403.006 509.426L403.995 509.574L408.495 479.574L407.506 479.426ZM378 485C386.265 485 391.694 484.566 396.123 483.715C400.555 482.864 403.966 481.6 408.181 479.966L407.819 479.034C403.61 480.665 400.271 481.901 395.934 482.733C391.594 483.567 386.235 484 378 484V485ZM315 485H378V484H315V485ZM300.5 469.5C300.5 475.011 301.243 478.933 303.503 481.458C305.776 484 309.466 485 315 485V484C309.534 484 306.224 483 304.248 480.792C302.257 478.567 301.5 474.989 301.5 469.5H300.5ZM300.5 459V469.5H301.5V459H300.5ZM346 435.499H300V436.499H346V435.499ZM345.5 432V435.999H346.5V432H345.5ZM345.5 427.5V432H346.5V427.5H345.5ZM345.5 415.5V427.5H346.5V415.5H345.5ZM330 408.5C336.011 408.5 339.906 408.881 342.295 409.956C343.468 410.484 344.253 411.17 344.753 412.045C345.258 412.928 345.5 414.052 345.5 415.5H346.5C346.5 413.948 346.242 412.634 345.622 411.549C344.997 410.455 344.032 409.641 342.705 409.044C340.094 407.869 335.989 407.5 330 407.5L330 408.5ZM322 408C322 407.5 322 407.5 322 407.5C322 407.5 322 407.5 322 407.5C322 407.5 322 407.5 321.999 407.5C321.999 407.5 321.998 407.5 321.997 407.5C321.995 407.5 321.992 407.5 321.989 407.5C321.982 407.5 321.971 407.5 321.958 407.5C321.932 407.5 321.895 407.5 321.852 407.5C321.766 407.5 321.656 407.5 321.563 407.5C321.469 407.5 321.391 407.5 321.367 407.5C321.364 407.5 321.362 407.5 321.361 407.5C321.36 407.5 321.36 407.5 321.36 407.5C321.361 407.5 321.86 408 321.361 408.5C321.361 408.5 321.36 408.5 321.36 408.5C321.36 408.5 321.36 408.5 321.361 408.5C321.362 408.5 321.368 408.5 321.378 408.5C321.398 408.5 321.438 408.5 321.5 408.5C322 408.5 324 408.5 330 408.5L330 407.5C324 407.5 322 407.5 321.5 407.5C321.437 407.5 321.398 407.5 321.378 407.5C321.368 407.5 321.362 407.5 321.36 407.5C321.36 407.5 321.36 407.5 321.36 407.5C321.36 407.5 321.359 407.5 321.359 407.5C320.86 408 321.359 408.5 321.36 408.5C321.36 408.5 321.36 408.5 321.361 408.5C321.362 408.5 321.364 408.5 321.367 408.5C321.391 408.5 321.469 408.5 321.562 408.5C321.656 408.5 321.766 408.5 321.852 408.5C321.895 408.5 321.932 408.5 321.958 408.5C321.971 408.5 321.982 408.5 321.989 408.5C321.992 408.5 321.995 408.5 321.997 408.5C321.998 408.5 321.999 408.5 321.999 408.5C322 408.5 322 408.5 322 408.5C322 408.5 322 408.5 322 408.5C322 408.5 322 408.5 322 408ZM300.5 417.999C300.5 415.658 300.81 413.941 301.488 412.664C302.156 411.406 303.208 410.525 304.806 409.903C306.422 409.275 308.58 408.92 311.425 408.725C314.265 408.531 317.748 408.5 322 408.5L322 407.5C317.752 407.5 314.235 407.531 311.357 407.728C308.483 407.924 306.203 408.287 304.444 408.971C302.667 409.662 301.406 410.687 300.605 412.195C299.815 413.683 299.5 415.591 299.5 417.999H300.5ZM300.5 435.999V417.999H299.5V435.999H300.5Z" fill="#DF771C"/>
<path fill-rule="evenodd" clip-rule="evenodd" d="M2 510H52C52 510 49.5 505.5 48.5 503.5C47.5 501.5 47.5 495 48.5 491.5C49.5 488 62.5 462.5 62.5 462.5H140.5C140.5 462.5 151.891 487.5 152.391 491C152.891 494.5 152.391 500.5 152.391 500.5C151.701 504.777 151.035 506.814 149.5 510H237C229.861 500.375 226.124 494.877 221 484.5L159 333H79.5C79.5 333 87 341 87 343C87 345 19.5 484.5 19.5 484.5C13.2102 495.209 9.31771 500.707 2 510ZM78 431.5H127L103.5 376L78 431.5Z" fill="#DF771C"/>
<path d="M52 510V510.5H52.8498L52.4371 509.757L52 510ZM2 510L1.60718 509.691L0.969836 510.5H2V510ZM62.5 462.5V462H62.1937L62.0545 462.273L62.5 462.5ZM140.5 462.5L140.955 462.293L140.822 462H140.5V462.5ZM152.391 500.5L152.885 500.58L152.888 500.561L152.89 500.542L152.391 500.5ZM149.5 510L149.05 509.783L148.704 510.5H149.5V510ZM237 510V510.5H237.993L237.402 509.702L237 510ZM221 484.5L220.537 484.689L220.544 484.706L220.552 484.721L221 484.5ZM159 333L159.463 332.811L159.336 332.5H159V333ZM79.5 333V332.5H78.3459L79.1352 333.342L79.5 333ZM19.5 484.5L19.9311 484.753L19.9413 484.736L19.9501 484.718L19.5 484.5ZM127 431.5V432H127.755L127.46 431.305L127 431.5ZM78 431.5L77.5457 431.291L77.22 432H78V431.5ZM103.5 376L103.96 375.805L103.519 374.762L103.046 375.791L103.5 376ZM103.5 373.5L103.96 373.305L103.518 372.26L103.045 373.292L103.5 373.5ZM76.5 432.5L76.0453 432.292L75.7213 433H76.5V432.5ZM128.5 432.5V433H129.255L128.96 432.305L128.5 432.5ZM52 509.5H2V510.5H52V509.5ZM48.0528 503.724C48.5574 504.733 49.4365 506.365 50.1861 507.739C50.5615 508.428 50.9057 509.054 51.156 509.507C51.2811 509.734 51.3828 509.918 51.4532 510.045C51.4884 510.109 51.5158 510.158 51.5345 510.192C51.5438 510.208 51.5509 510.221 51.5556 510.23C51.558 510.234 51.5599 510.237 51.5611 510.239C51.5617 510.241 51.5621 510.241 51.5624 510.242C51.5626 510.242 51.5627 510.242 51.5628 510.243C51.5628 510.243 51.5629 510.243 51.5629 510.243C51.5629 510.243 51.5629 510.243 52 510C52.4371 509.757 52.4371 509.757 52.4371 509.757C52.437 509.757 52.437 509.757 52.437 509.757C52.4369 509.757 52.4368 509.757 52.4366 509.756C52.4363 509.756 52.4359 509.755 52.4353 509.754C52.4341 509.752 52.4323 509.749 52.4299 509.744C52.4252 509.736 52.4182 509.723 52.4089 509.706C52.3904 509.673 52.3631 509.624 52.328 509.56C52.2578 509.434 52.1564 509.25 52.0315 509.024C51.7818 508.571 51.4385 507.947 51.0639 507.261C50.3135 505.885 49.4426 504.267 48.9472 503.276L48.0528 503.724ZM48.0192 491.363C47.5016 493.174 47.25 495.725 47.25 498.062C47.25 499.235 47.3133 500.367 47.4418 501.339C47.5686 502.298 47.7644 503.147 48.0528 503.724L48.9472 503.276C48.7356 502.853 48.5564 502.139 48.4332 501.208C48.3117 500.289 48.25 499.202 48.25 498.062C48.25 495.775 48.4984 493.326 48.9808 491.637L48.0192 491.363ZM62.5 462.5C62.0545 462.273 62.0545 462.273 62.0544 462.273C62.0543 462.273 62.0541 462.274 62.0539 462.274C62.0535 462.275 62.0529 462.276 62.0522 462.278C62.0506 462.281 62.0482 462.285 62.0451 462.291C62.0388 462.304 62.0295 462.322 62.0171 462.346C61.9925 462.395 61.9559 462.467 61.9081 462.56C61.8126 462.748 61.6724 463.024 61.4936 463.376C61.136 464.081 60.6242 465.091 60.0068 466.314C58.7721 468.76 57.1152 472.058 55.427 475.466C53.739 478.873 52.0186 482.392 50.6571 485.279C49.3061 488.144 48.2832 490.439 48.0192 491.363L48.9808 491.637C49.2168 490.811 50.1939 488.606 51.5616 485.705C52.9189 482.827 54.636 479.315 56.323 475.909C58.0098 472.505 59.6654 469.209 60.8995 466.764C61.5165 465.542 62.028 464.533 62.3853 463.829C62.5639 463.477 62.704 463.201 62.7994 463.014C62.8471 462.92 62.8836 462.848 62.9082 462.8C62.9205 462.776 62.9298 462.758 62.9361 462.746C62.9392 462.739 62.9415 462.735 62.9431 462.732C62.9439 462.73 62.9445 462.729 62.9449 462.728C62.9451 462.728 62.9452 462.728 62.9453 462.727C62.9454 462.727 62.9455 462.727 62.5 462.5ZM140.5 462H62.5V463H140.5V462ZM152.886 490.929C152.816 490.436 152.566 489.617 152.208 488.604C151.846 487.576 151.357 486.305 150.786 484.884C149.645 482.042 148.172 478.583 146.717 475.238C145.26 471.892 143.82 468.656 142.744 466.256C142.206 465.057 141.759 464.066 141.446 463.375C141.29 463.029 141.167 462.759 141.083 462.575C141.041 462.483 141.009 462.412 140.988 462.365C140.977 462.341 140.969 462.323 140.963 462.311C140.961 462.305 140.958 462.3 140.957 462.297C140.956 462.296 140.956 462.295 140.956 462.294C140.955 462.293 140.955 462.293 140.955 462.293C140.955 462.293 140.955 462.293 140.5 462.5C140.045 462.707 140.045 462.707 140.045 462.708C140.045 462.708 140.045 462.708 140.046 462.708C140.046 462.709 140.046 462.71 140.047 462.712C140.048 462.715 140.05 462.719 140.053 462.725C140.059 462.737 140.067 462.755 140.078 462.779C140.099 462.826 140.131 462.897 140.173 462.988C140.256 463.172 140.379 463.442 140.535 463.787C140.847 464.477 141.294 465.467 141.831 466.666C142.907 469.063 144.346 472.296 145.8 475.637C147.254 478.979 148.723 482.427 149.858 485.257C150.426 486.672 150.909 487.928 151.265 488.937C151.627 489.961 151.842 490.689 151.896 491.071L152.886 490.929ZM152.391 500.5C152.89 500.542 152.89 500.541 152.89 500.541C152.89 500.541 152.89 500.541 152.89 500.541C152.89 500.541 152.89 500.541 152.89 500.54C152.89 500.539 152.89 500.538 152.89 500.537C152.89 500.534 152.891 500.529 152.891 500.523C152.892 500.511 152.893 500.494 152.895 500.471C152.899 500.426 152.904 500.359 152.91 500.272C152.923 500.1 152.941 499.85 152.961 499.539C153 498.918 153.047 498.054 153.079 497.079C153.141 495.138 153.143 492.726 152.886 490.929L151.896 491.071C152.14 492.774 152.141 495.112 152.079 497.046C152.048 498.009 152.001 498.863 151.963 499.476C151.943 499.783 151.926 500.029 151.913 500.198C151.907 500.283 151.902 500.348 151.898 500.392C151.897 500.414 151.895 500.431 151.894 500.442C151.894 500.448 151.894 500.452 151.893 500.455C151.893 500.456 151.893 500.457 151.893 500.458C151.893 500.458 151.893 500.458 151.893 500.458C151.893 500.458 151.893 500.458 151.893 500.458C151.893 500.458 151.893 500.458 152.391 500.5ZM149.95 510.217C151.508 506.984 152.188 504.901 152.885 500.58L151.898 500.42C151.215 504.654 150.562 506.644 149.05 509.783L149.95 510.217ZM237 509.5H149.5V510.5H237V509.5ZM220.552 484.721C225.694 495.136 229.45 500.66 236.598 510.298L237.402 509.702C230.272 500.09 226.554 494.619 221.448 484.279L220.552 484.721ZM158.537 333.189L220.537 484.689L221.463 484.311L159.463 332.811L158.537 333.189ZM79.5 333.5H159V332.5H79.5V333.5ZM87.5 343C87.5 342.625 87.3347 342.192 87.1249 341.772C86.9058 341.334 86.599 340.837 86.2412 340.312C85.5248 339.261 84.5754 338.06 83.6341 336.93C82.6912 335.798 81.7492 334.731 81.0435 333.947C80.6905 333.555 80.3962 333.233 80.19 333.009C80.0869 332.897 80.0058 332.809 79.9504 332.75C79.9227 332.72 79.9014 332.697 79.887 332.682C79.8798 332.674 79.8743 332.668 79.8705 332.664C79.8687 332.662 79.8673 332.661 79.8663 332.66C79.8658 332.659 79.8655 332.659 79.8652 332.658C79.8651 332.658 79.865 332.658 79.8649 332.658C79.8648 332.658 79.8648 332.658 79.5 333C79.1352 333.342 79.1352 333.342 79.1353 333.342C79.1353 333.342 79.1354 333.342 79.1355 333.342C79.1357 333.342 79.136 333.343 79.1364 333.343C79.1373 333.344 79.1386 333.346 79.1403 333.347C79.1438 333.351 79.1491 333.357 79.1561 333.364C79.17 333.379 79.1908 333.402 79.218 333.431C79.2725 333.489 79.3525 333.576 79.4545 333.686C79.6585 333.908 79.9501 334.227 80.3002 334.616C81.0008 335.394 81.9338 336.452 82.8659 337.57C83.7996 338.69 84.7252 339.864 85.415 340.875C85.7603 341.382 86.0396 341.838 86.2305 342.22C86.4309 342.62 86.5 342.875 86.5 343H87.5ZM19.5 484.5C19.9501 484.718 19.9503 484.717 19.9509 484.716C19.9514 484.715 19.9521 484.714 19.9532 484.711C19.9552 484.707 19.9583 484.701 19.9624 484.692C19.9706 484.675 19.9828 484.65 19.999 484.617C20.0315 484.55 20.0799 484.45 20.1437 484.318C20.2715 484.053 20.461 483.662 20.7082 483.151C21.2026 482.128 21.9277 480.629 22.8506 478.72C24.6963 474.901 27.3331 469.444 30.4972 462.889C36.8254 449.78 45.263 432.279 53.7007 414.717C62.1383 397.154 70.5763 379.528 76.905 366.167C80.0692 359.487 82.7069 353.872 84.5537 349.864C85.477 347.86 86.2037 346.255 86.7001 345.119C86.9481 344.551 87.1403 344.097 87.2713 343.766C87.3365 343.601 87.3887 343.462 87.4254 343.352C87.4437 343.297 87.46 343.243 87.4724 343.195C87.4819 343.157 87.5 343.082 87.5 343H86.5C86.5 342.949 86.5099 342.922 86.503 342.949C86.499 342.965 86.4909 342.993 86.4767 343.035C86.4485 343.12 86.404 343.24 86.3415 343.398C86.217 343.712 86.0302 344.154 85.7838 344.719C85.2914 345.845 84.568 347.443 83.6455 349.445C81.8009 353.448 79.1651 359.06 76.0013 365.739C69.6737 379.097 61.2367 396.721 52.7993 414.283C44.362 431.846 35.9246 449.345 29.5966 462.455C26.4326 469.009 23.7959 474.466 21.9502 478.284C21.0274 480.193 20.3023 481.693 19.8079 482.715C19.5608 483.226 19.3712 483.618 19.2435 483.882C19.1797 484.014 19.1313 484.114 19.0988 484.181C19.0826 484.215 19.0704 484.24 19.0622 484.257C19.0581 484.265 19.0551 484.272 19.053 484.276C19.052 484.278 19.0512 484.28 19.0507 484.281C19.0502 484.282 19.0499 484.282 19.5 484.5ZM2.39282 510.309C9.72241 501.002 13.6282 495.485 19.9311 484.753L19.0689 484.247C12.7922 494.934 8.913 500.413 1.60718 509.691L2.39282 510.309ZM127 431H78V432H127V431ZM103.04 376.195L126.54 431.695L127.46 431.305L103.96 375.805L103.04 376.195ZM78.4543 431.709L103.954 376.209L103.046 375.791L77.5457 431.291L78.4543 431.709ZM103.045 373.292L76.0453 432.292L76.9547 432.708L103.955 373.708L103.045 373.292ZM128.96 432.305L103.96 373.305L103.04 373.695L128.04 432.695L128.96 432.305ZM76.5 433H128.5V432H76.5V433Z" fill="#DF771C"/>
<path d="M468.512 535.592H474.848V569H468.512V535.592ZM526.031 535.592V569H519.695L503.855 546.92V569H497.519V535.592H503.855L519.695 557.624V535.592H526.031ZM565.574 569.576C561.894 569.576 558.726 568.872 556.07 567.464C553.446 566.056 551.43 564.056 550.022 561.464C548.646 558.84 547.958 555.784 547.958 552.296C547.958 548.808 548.662 545.768 550.07 543.176C551.478 540.552 553.526 538.536 556.214 537.128C558.902 535.72 562.118 535.016 565.862 535.016C567.43 535.016 568.966 535.176 570.47 535.496C572.006 535.784 573.382 536.232 574.598 536.84V542.696H574.406C573.19 541.992 571.862 541.464 570.422 541.112C569.014 540.76 567.67 540.584 566.39 540.584C562.742 540.584 559.862 541.592 557.75 543.608C555.67 545.624 554.63 548.52 554.63 552.296C554.63 556.04 555.654 558.92 557.702 560.936C559.75 562.952 562.55 563.96 566.102 563.96C567.478 563.96 568.87 563.752 570.278 563.336C571.718 562.888 573.094 562.264 574.406 561.464H574.598V567.368C572.038 568.84 569.03 569.576 565.574 569.576ZM612.072 569.576C608.648 569.576 605.704 568.872 603.24 567.464C600.776 566.056 598.904 564.056 597.624 561.464C596.344 558.872 595.704 555.816 595.704 552.296C595.704 548.776 596.344 545.72 597.624 543.128C598.904 540.536 600.776 538.536 603.24 537.128C605.704 535.72 608.648 535.016 612.072 535.016C615.496 535.016 618.44 535.72 620.905 537.128C623.369 538.536 625.241 540.536 626.52 543.128C627.8 545.72 628.441 548.776 628.441 552.296C628.441 555.816 627.8 558.872 626.52 561.464C625.241 564.056 623.369 566.056 620.905 567.464C618.44 568.872 615.496 569.576 612.072 569.576ZM612.072 563.72C615.08 563.72 617.448 562.744 619.176 560.792C620.905 558.808 621.769 555.976 621.769 552.296C621.769 548.616 620.905 545.8 619.176 543.848C617.448 541.864 615.08 540.872 612.072 540.872C609.064 540.872 606.696 541.864 604.968 543.848C603.24 545.8 602.376 548.616 602.376 552.296C602.376 555.976 603.24 558.808 604.968 560.792C606.696 562.744 609.064 563.72 612.072 563.72ZM669.473 569L662.657 556.28H656.705V569H650.369V535.592H662.417C666.737 535.592 669.969 536.456 672.113 538.184C674.257 539.912 675.329 542.424 675.329 545.72C675.329 548.056 674.801 550.04 673.745 551.672C672.689 553.304 671.121 554.52 669.041 555.32L676.433 569H669.473ZM656.705 550.712H662.465C664.577 550.712 666.129 550.344 667.121 549.608C668.145 548.872 668.657 547.624 668.657 545.864C668.657 544.168 668.161 542.968 667.169 542.264C666.177 541.56 664.593 541.208 662.417 541.208H656.705V550.712ZM697.178 535.592H708.218C712.826 535.592 716.266 536.536 718.538 538.424C720.81 540.28 721.946 542.984 721.946 546.536C721.946 550.12 720.826 552.904 718.586 554.888C716.346 556.872 713.082 557.864 708.794 557.864H703.514V569H697.178V535.592ZM708.266 552.344C710.666 552.344 712.426 551.912 713.546 551.048C714.698 550.184 715.274 548.728 715.274 546.68C715.274 544.696 714.714 543.288 713.594 542.456C712.474 541.624 710.682 541.208 708.218 541.208H703.514V552.344H708.266ZM757.282 569.576C753.858 569.576 750.914 568.872 748.45 567.464C745.986 566.056 744.114 564.056 742.834 561.464C741.554 558.872 740.914 555.816 740.914 552.296C740.914 548.776 741.554 545.72 742.834 543.128C744.114 540.536 745.986 538.536 748.45 537.128C750.914 535.72 753.858 535.016 757.282 535.016C760.706 535.016 763.65 535.72 766.114 537.128C768.578 538.536 770.45 540.536 771.73 543.128C773.01 545.72 773.65 548.776 773.65 552.296C773.65 555.816 773.01 558.872 771.73 561.464C770.45 564.056 768.578 566.056 766.114 567.464C763.65 568.872 760.706 569.576 757.282 569.576ZM757.282 563.72C760.29 563.72 762.658 562.744 764.386 560.792C766.114 558.808 766.978 555.976 766.978 552.296C766.978 548.616 766.114 545.8 764.386 543.848C762.658 541.864 760.29 540.872 757.282 540.872C754.274 540.872 751.906 541.864 750.178 543.848C748.45 545.8 747.586 548.616 747.586 552.296C747.586 555.976 748.45 558.808 750.178 560.792C751.906 562.744 754.274 563.72 757.282 563.72ZM814.682 569L807.866 556.28H801.914V569H795.578V535.592H807.626C811.946 535.592 815.178 536.456 817.322 538.184C819.466 539.912 820.538 542.424 820.538 545.72C820.538 548.056 820.01 550.04 818.954 551.672C817.898 553.304 816.33 554.52 814.25 555.32L821.642 569H814.682ZM801.914 550.712H807.674C809.786 550.712 811.338 550.344 812.33 549.608C813.354 548.872 813.866 547.624 813.866 545.864C813.866 544.168 813.37 542.968 812.378 542.264C811.386 541.56 809.802 541.208 807.626 541.208H801.914V550.712ZM862.212 561.416H847.956L845.172 569H838.836L851.508 535.592H858.9L871.572 569H864.996L862.212 561.416ZM860.244 556.04L855.108 541.832L849.924 556.04H860.244ZM896.445 541.4H886.941V535.592H912.285V541.4H902.781V569H896.445V541.4ZM939.436 541.16V549.512H953.836V554.744H939.436V563.432H954.892V569H933.1V535.592H954.892V541.16H939.436ZM989.339 535.592C992.763 535.592 995.707 536.28 998.171 537.656C1000.64 539 1002.51 540.936 1003.79 543.464C1005.07 545.96 1005.71 548.904 1005.71 552.296C1005.71 555.688 1005.07 558.648 1003.79 561.176C1002.51 563.672 1000.64 565.608 998.171 566.984C995.707 568.328 992.763 569 989.339 569H977.003V535.592H989.339ZM989.339 563.384C992.379 563.384 994.747 562.44 996.443 560.552C998.171 558.664 999.035 555.912 999.035 552.296C999.035 548.68 998.171 545.928 996.443 544.04C994.747 542.152 992.379 541.208 989.339 541.208H983.339V563.384H989.339Z" fill="#818285"/>
<path d="M6.512 536.592H12.848V570H6.512V536.592ZM64.271 536.592V570H57.935L42.095 547.92V570H35.759V536.592H42.095L57.935 558.624V536.592H64.271ZM99.9256 536.592C103.35 536.592 106.294 537.28 108.758 538.656C111.222 540 113.094 541.936 114.374 544.464C115.654 546.96 116.294 549.904 116.294 553.296C116.294 556.688 115.654 559.648 114.374 562.176C113.094 564.672 111.222 566.608 108.758 567.984C106.294 569.328 103.35 570 99.9256 570H87.5896V536.592H99.9256ZM99.9256 564.384C102.966 564.384 105.334 563.44 107.03 561.552C108.758 559.664 109.622 556.912 109.622 553.296C109.622 549.68 108.758 546.928 107.03 545.04C105.334 543.152 102.966 542.208 99.9256 542.208H93.9256V564.384H99.9256ZM152.259 570.576C147.811 570.576 144.323 569.296 141.795 566.736C139.267 564.176 138.003 560.656 138.003 556.176V536.592H144.339V556.032C144.339 559.104 145.027 561.376 146.403 562.848C147.779 564.288 149.731 565.008 152.259 565.008C154.819 565.008 156.771 564.272 158.115 562.8C159.491 561.296 160.179 559.04 160.179 556.032V536.592H166.515V556.176C166.515 560.656 165.251 564.176 162.723 566.736C160.195 569.296 156.707 570.576 152.259 570.576ZM199.744 570.576C197.952 570.576 196.048 570.336 194.032 569.856C192.016 569.376 190.112 568.72 188.32 567.888V561.744C192.48 563.984 196.192 565.104 199.456 565.104C201.088 565.104 202.4 564.752 203.392 564.048C204.416 563.344 204.928 562.352 204.928 561.072C204.928 560.176 204.64 559.424 204.064 558.816C203.52 558.176 202.832 557.664 202 557.28C201.168 556.864 199.984 556.368 198.448 555.792C196.368 555.024 194.672 554.288 193.36 553.584C192.048 552.88 190.928 551.888 190 550.608C189.072 549.296 188.608 547.616 188.608 545.568C188.608 542.56 189.648 540.224 191.728 538.56C193.808 536.864 196.656 536.016 200.272 536.016C201.968 536.016 203.632 536.208 205.264 536.592C206.896 536.944 208.4 537.472 209.776 538.176V544.176C206.544 542.384 203.424 541.488 200.416 541.488C198.752 541.488 197.44 541.792 196.48 542.4C195.552 542.976 195.088 543.808 195.088 544.896C195.088 545.984 195.568 546.848 196.528 547.488C197.52 548.096 199.04 548.768 201.088 549.504C203.232 550.304 204.992 551.072 206.368 551.808C207.744 552.544 208.928 553.616 209.92 555.024C210.944 556.4 211.488 558.192 211.552 560.4C211.552 563.568 210.48 566.064 208.336 567.888C206.192 569.68 203.328 570.576 199.744 570.576ZM240.767 542.4H231.263V536.592H256.607V542.4H247.103V570H240.767V542.4ZM296.766 570L289.95 557.28H283.998V570H277.662V536.592H289.71C294.03 536.592 297.262 537.456 299.406 539.184C301.55 540.912 302.622 543.424 302.622 546.72C302.622 549.056 302.094 551.04 301.038 552.672C299.982 554.304 298.414 555.52 296.334 556.32L303.726 570H296.766ZM283.998 551.712H289.758C291.87 551.712 293.422 551.344 294.414 550.608C295.438 549.872 295.95 548.624 295.95 546.864C295.95 545.168 295.454 543.968 294.462 543.264C293.47 542.56 291.886 542.208 289.71 542.208H283.998V551.712ZM324.279 536.592H330.615V570H324.279V536.592ZM359.862 542.16V550.512H374.262V555.744H359.862V564.432H375.318V570H353.526V536.592H375.318V542.16H359.862ZM408.038 570.576C406.246 570.576 404.342 570.336 402.326 569.856C400.31 569.376 398.406 568.72 396.614 567.888V561.744C400.774 563.984 404.486 565.104 407.75 565.104C409.382 565.104 410.694 564.752 411.686 564.048C412.71 563.344 413.222 562.352 413.222 561.072C413.222 560.176 412.934 559.424 412.358 558.816C411.814 558.176 411.126 557.664 410.294 557.28C409.462 556.864 408.278 556.368 406.742 555.792C404.662 555.024 402.966 554.288 401.654 553.584C400.342 552.88 399.222 551.888 398.294 550.608C397.366 549.296 396.902 547.616 396.902 545.568C396.902 542.56 397.942 540.224 400.022 538.56C402.102 536.864 404.95 536.016 408.566 536.016C410.262 536.016 411.926 536.208 413.558 536.592C415.19 536.944 416.694 537.472 418.07 538.176V544.176C414.838 542.384 411.718 541.488 408.71 541.488C407.046 541.488 405.734 541.792 404.774 542.4C403.846 542.976 403.382 543.808 403.382 544.896C403.382 545.984 403.862 546.848 404.822 547.488C405.814 548.096 407.334 548.768 409.382 549.504C411.526 550.304 413.286 551.072 414.662 551.808C416.038 552.544 417.222 553.616 418.214 555.024C419.238 556.4 419.782 558.192 419.846 560.4C419.846 563.568 418.774 566.064 416.63 567.888C414.486 569.68 411.622 570.576 408.038 570.576Z" fill="#818285"/>
<circle cx="615" cy="171" r="18" fill="#DF771C"/>
<circle cx="658" cy="209" r="18" fill="#D1D2D4"/>
<circle r="18" transform="matrix(-1 0 0 1 572 209)" fill="#D1D2D4"/>
<circle cx="699" cy="248" r="18" fill="#D1D2D4"/>
<circle r="18" transform="matrix(-1 0 0 1 531 248)" fill="#D1D2D4"/>
<circle cx="741" cy="287" r="18" fill="#A7A9AC"/>
<circle r="18" transform="matrix(-1 0 0 1 489 287)" fill="#A7A9AC"/>
<circle cx="793" cy="330" r="18" fill="#A7A9AC"/>
<circle r="18" transform="matrix(-1 0 0 1 437 330)" fill="#A7A9AC"/>
<circle cx="615" cy="94" r="14" fill="#DF771C"/>
<circle cx="656" cy="132" r="14" fill="#D1D2D4"/>
<circle r="14" transform="matrix(-1 0 0 1 574 132)" fill="#D1D2D4"/>
<circle cx="700" cy="171" r="14" fill="#A7A9AC"/>
<circle r="14" transform="matrix(-1 0 0 1 530 171)" fill="#A7A9AC"/>
<circle cx="741" cy="209" r="14" fill="#A7A9AC"/>
<circle r="14" transform="matrix(-1 0 0 1 489 209)" fill="#A7A9AC"/>
<circle cx="785.5" cy="167.5" r="12.5" fill="#A7A9AC"/>
<circle r="12.5" transform="matrix(-1 0 0 1 444.5 167.5)" fill="#A7A9AC"/>
<circle cx="784" cy="247" r="14" fill="#A7A9AC"/>
<circle r="14" transform="matrix(-1 0 0 1 446 247)" fill="#A7A9AC"/>
<circle cx="826" cy="285" r="14" fill="#A7A9AC"/>
<circle r="14" transform="matrix(-1 0 0 1 404 285)" fill="#A7A9AC"/>
<circle cx="875" cy="330" r="14" fill="#818285"/>
<circle r="14" transform="matrix(-1 0 0 1 355 330)" fill="#818285"/>
<circle cx="615" cy="9" r="9" fill="#DF771C"/>
<circle cx="700" cy="85" r="9" fill="#A7A9AC"/>
<circle r="9" transform="matrix(-1 0 0 1 530 85)" fill="#A7A9AC"/>
<circle cx="822" cy="135" r="9" fill="#A7A9AC"/>
<circle r="9" transform="matrix(-1 0 0 1 408 135)" fill="#A7A9AC"/>
<circle cx="868" cy="239" r="9" fill="#818285"/>
<circle r="9" transform="matrix(-1 0 0 1 362 239)" fill="#818285"/>
<circle cx="969" cy="329" r="9" fill="#818285"/>
<circle r="9" transform="matrix(-1 0 0 1 261 329)" fill="#818285"/>
<circle cx="615.5" cy="252.5" r="23.5" fill="#DF771C"/>
<circle cx="656.5" cy="292.5" r="23.5" fill="#D1D2D4"/>
<circle r="23.5" transform="matrix(-1 0 0 1 573.5 292.5)" fill="#D1D2D4"/>
<circle cx="699.5" cy="329.5" r="23.5" fill="#A7A9AC"/>
<circle r="23.5" transform="matrix(-1 0 0 1 530.5 329.5)" fill="#A7A9AC"/>
</svg>
